<?xml version="1.0" standalone="no"?>
<!DOCTYPE svg PUBLIC "-//W3C//DTD SVG 20010904//EN"
 "http://www.w3.org/TR/2001/REC-SVG-20010904/DTD/svg10.dtd">
<svg version="1.0" xmlns="http://www.w3.org/2000/svg"
 width="125.000000pt" height="125.000000pt" viewBox="0 0 125.000000 125.000000"
 preserveAspectRatio="xMidYMid meet">

<g transform="translate(0.000000,125.000000) scale(0.100000,-0.100000)"
fill="current" stroke="none">
<path d="M105 1234 c-43 -22 -64 -44 -86 -86 -18 -35 -19 -66 -19 -536 l0
-499 23 -34 c12 -18 38 -44 56 -56 l34 -23 509 0 c554 0 546 -1 601 57 l28 30
-3 525 -3 526 -31 39 c-60 74 -40 72 -589 72 -425 1 -494 -1 -520 -15z m605
-139 c118 -16 266 -126 329 -245 56 -105 76 -247 50 -359 -25 -112 -108 -225
-213 -293 -73 -47 -119 -57 -146 -33 -17 16 -20 31 -20 109 0 67 -4 98 -16
114 -21 30 -13 39 52 52 67 14 119 56 134 108 18 64 12 133 -14 176 -18 30
-22 49 -18 81 6 56 -8 62 -64 31 -41 -23 -49 -24 -104 -14 -42 7 -78 7 -120
-1 -54 -9 -64 -8 -93 9 -54 33 -67 28 -67 -30 0 -31 -7 -61 -17 -77 -25 -38
-24 -136 2 -187 26 -51 60 -75 127 -90 41 -10 53 -17 53 -32 0 -26 -25 -28
-90 -9 -111 32 -173 124 -163 243 3 32 11 71 18 87 8 17 14 55 15 86 1 88 33
108 113 72 27 -12 71 -17 160 -18 103 -2 128 0 159 16 80 41 115 18 119 -76 1
-27 10 -68 19 -90 28 -62 23 -154 -12 -224 -25 -49 -35 -59 -89 -86 l-61 -30
5 -85 c2 -47 6 -86 7 -88 9 -10 114 57 155 97 168 168 164 449 -9 615 -174
166 -439 160 -605 -13 -65 -69 -103 -143 -118 -235 -28 -169 69 -364 220 -440
28 -14 54 -26 57 -26 3 0 5 20 5 44 0 43 -1 44 -37 51 -55 10 -91 32 -108 65
-28 54 9 70 49 23 20 -23 35 -29 82 -33 l59 -5 3 -87 c3 -83 2 -88 -22 -104
-25 -15 -28 -15 -91 15 -122 56 -226 182 -261 315 -20 76 -18 192 6 269 54
173 217 314 392 336 62 8 80 8 168 -4z"/>
</g>
</svg>
