<?xml version="1.0" standalone="no"?>
<!DOCTYPE svg PUBLIC "-//W3C//DTD SVG 20010904//EN"
 "http://www.w3.org/TR/2001/REC-SVG-20010904/DTD/svg10.dtd">
<svg version="1.0" xmlns="http://www.w3.org/2000/svg"
 width="125.000000pt" height="125.000000pt" viewBox="0 0 125.000000 125.000000"
 preserveAspectRatio="xMidYMid meet">

<g transform="translate(0.000000,125.000000) scale(0.100000,-0.100000)"
fill="current" stroke="none">
<path d="M125 1243 c-37 -9 -87 -55 -106 -97 -17 -38 -19 -74 -19 -516 0 -281
4 -489 10 -509 11 -39 51 -86 92 -107 22 -11 116 -14 524 -14 l497 0 43 25
c28 17 49 39 63 69 21 43 22 51 19 544 l-3 500 -31 39 c-57 71 -35 68 -579 69
-269 1 -499 0 -510 -3z m945 -266 c0 -22 -134 -703 -146 -740 -3 -9 -14 -22
-25 -27 -25 -14 -48 -1 -174 93 l-100 76 -66 -65 c-67 -64 -90 -75 -106 -52
-4 7 -29 73 -54 147 l-45 135 -115 36 c-111 35 -114 36 -114 65 0 26 6 32 45
46 25 10 160 61 300 114 531 203 563 214 582 204 10 -5 18 -20 18 -32z"/>
<path d="M650 720 c-129 -82 -239 -151 -245 -153 -9 -3 50 -213 65 -230 4 -5
10 28 14 72 l7 80 205 183 c187 168 218 198 197 198 -5 0 -114 -68 -243 -150z"/>
</g>
</svg>
